<svg width="128" height="128" viewBox="0 0 128 128" fill="none" xmlns="http://www.w3.org/2000/svg">
<path d="M64.5 0.5C92.0957 0.5 114.5 22.9068 114.5 50.5059C114.5 62.8712 110.001 74.1944 102.555 82.9268C102.539 82.9566 102.522 82.9859 102.501 83.0127C98.534 87.9747 93.6162 93.4148 88.9961 98.5264C84.3675 103.647 80.0446 108.43 77.2393 112.102C74.4018 115.815 71.7046 120.96 70.126 124.195C69.1433 126.216 67.0938 127.5 64.8467 127.5H64.0498C61.9088 127.5 59.9535 126.284 59.0068 124.363C57.3879 121.081 54.6658 115.842 52.4883 113.008C49.5288 109.156 44.7978 103.877 39.6943 98.1719C34.5991 92.476 29.1402 86.365 24.752 80.8721C24.7164 80.8276 24.6902 80.7775 24.6719 80.7256C18.2904 72.329 14.5 61.856 14.5 50.5059C14.5002 22.9068 36.9041 0.500052 64.5 0.5ZM64.5 24.5586C50.2013 24.5586 38.5928 36.169 38.5928 50.4697C38.5928 64.7702 50.2013 76.3808 64.5 76.3809C78.7985 76.3809 90.4082 64.7703 90.4082 50.4697C90.4082 36.169 78.7986 24.5586 64.5 24.5586Z" fill="white" stroke="#C7CBD1" stroke-miterlimit="1.5" stroke-linecap="round" stroke-linejoin="round"/>
</svg>
