<svg width="24" height="24" viewBox="0 0 24 24" fill="none" xmlns="http://www.w3.org/2000/svg">
<path d="M5.31499 2.1C6.10599 1.987 7.21499 2.245 8.64799 3.066L8.91999 3.227L9.07999 3.327L9.47699 3.244C10.9908 2.95149 12.5439 2.92442 14.067 3.164L14.523 3.244L14.919 3.327L15.08 3.227C16.465 2.387 17.567 2.057 18.402 2.079L18.566 2.087L18.713 2.104L18.789 2.118L18.839 2.129L18.983 2.176C19.2188 2.27346 19.4084 2.45734 19.513 2.69C19.9222 3.6017 20.06 4.61201 19.91 5.6L19.863 5.867L19.817 6.063L19.94 6.226C20.514 7.021 20.87 7.954 20.97 8.933L20.993 9.228L21 9.5C21 13.355 19.341 15.383 16.356 16.18L16.111 16.241L15.979 16.27L15.993 16.431L16.001 16.588L16.005 16.953L16.003 17.166L16 21C16 21.2449 15.91 21.4813 15.7473 21.6644C15.5845 21.8474 15.3602 21.9643 15.117 21.993L15 22H8.99999C8.75506 22 8.51865 21.91 8.33562 21.7473C8.15258 21.5845 8.03565 21.3603 8.00699 21.117L7.99999 21V20.266C6.18199 20.526 4.96999 19.842 3.88999 18.388L3.35499 17.622C3.07499 17.226 2.89999 17.043 2.76599 16.978L2.71799 16.959C2.4704 16.8785 2.26395 16.7047 2.14251 16.4744C2.02107 16.2442 1.99422 15.9756 2.06766 15.7258C2.1411 15.4761 2.30905 15.2648 2.53581 15.1369C2.76257 15.009 3.03026 14.9746 3.28199 15.041C3.92399 15.229 4.35599 15.609 4.85199 16.28L5.38999 17.049C6.14999 18.128 6.74999 18.508 7.99899 18.24L7.99999 17.562L7.98199 17.394C7.95232 17.1204 7.9453 16.8448 7.96099 16.57L7.97799 16.385L7.99699 16.265L7.88899 16.241C4.91299 15.531 3.18599 13.668 3.01399 10.102L3.00399 9.792L2.99999 9.5C3.00115 8.41658 3.31656 7.35675 3.90799 6.449L4.05999 6.227L4.18199 6.064L4.13699 5.868C3.95671 4.98956 4.00666 4.07943 4.28199 3.226L4.38199 2.944L4.48799 2.691C4.59239 2.45852 4.7816 2.27467 5.01699 2.177L5.16099 2.13L5.31499 2.1Z" fill="#8F8F8F"/>
</svg>